<svg width="39" height="40" viewBox="0 0 39 40" fill="none" xmlns="http://www.w3.org/2000/svg">
<rect width="39" height="40" rx="19.5" fill="#8E258D"/>
<path fill-rule="evenodd" clip-rule="evenodd" d="M25.3502 16C25.3502 19.3137 22.7311 22 19.5002 22C16.2694 22 13.6502 19.3137 13.6502 16C13.6502 12.6863 16.2694 10 19.5002 10C22.7311 10 25.3502 12.6863 25.3502 16ZM23.4002 16C23.4002 18.2091 21.6541 20 19.5002 20C17.3463 20 15.6002 18.2091 15.6002 16C15.6002 13.7909 17.3463 12 19.5002 12C21.6541 12 23.4002 13.7909 23.4002 16Z" fill="#EADDFF"/>
<path d="M19.5002 25C13.1877 25 7.80928 28.8284 5.7605 34.192C6.2596 34.7004 6.78536 35.1812 7.33544 35.6321C8.86107 30.7077 13.647 27 19.5002 27C25.3534 27 30.1394 30.7077 31.665 35.6321C32.2151 35.1812 32.7409 34.7004 33.24 34.1921C31.1912 28.8284 25.8128 25 19.5002 25Z" fill="#EADDFF"/>
</svg>
